# xmcd CD database file
#
# Track frame offsets:
#	150
#	34667
#	67194
#	101242
#	128093
#	161310
#	202724
#	232723
#	262760
#	301028
#
# Disc length: 4392 seconds
#
# Revision: 1
# Processed by: cddbd v1.5.1PL2 Copyright (c) Steve Scherf et al.
# Submitted via: CDex 1.51
#
DISCID=7011260a
DTITLE=Bob Magnusson - Liquid Lines
DYEAR=2006
DGENRE=Jazz
TTITLE0=Afternoon At First Point
TTITLE1=Portrero Grande
TTITLE2=Liquid Lines
TTITLE3=Aqua Reflections
TTITLE4=Reef Dance
TTITLE5=the Search, The Discovery
TTITLE6=Newbreak
TTITLE7=Sea Blues
TTITLE8=Undercurrent
TTITLE9=Weird Weather
EXTD=YEAR: 2006
EXTT0=
EXTT1=
EXTT2=
EXTT3=
EXTT4=
EXTT5=
EXTT6=
EXTT7=
EXTT8=
EXTT9=
PLAYORDER=
